<svg width="158" height="93" viewBox="0 0 158 93" fill="none" xmlns="http://www.w3.org/2000/svg">
<path d="M27.4314 45.4C26.5247 45.4 25.6581 45.28 24.8314 45.04C24.0047 44.8 23.2314 44.4533 22.5114 44C21.8181 43.5467 21.1914 43.0133 20.6314 42.4C20.0714 41.76 19.5914 41.0667 19.1914 40.32L21.9114 37.48C22.6847 38.52 23.3514 39.3067 23.9114 39.84C24.4981 40.3733 25.0581 40.7333 25.5914 40.92C26.1514 41.1067 26.7647 41.2 27.4314 41.2C28.3914 41.2 29.2314 40.9867 29.9514 40.56C30.6714 40.1067 31.2314 39.4933 31.6314 38.72C32.0314 37.9467 32.2314 37.0667 32.2314 36.08V21H27.1114V17H40.8714V21H36.5514V36.48C36.5514 37.76 36.3247 38.9467 35.8714 40.04C35.4447 41.1067 34.8181 42.04 33.9914 42.84C33.1914 43.64 32.2314 44.2667 31.1114 44.72C30.0181 45.1733 28.7914 45.4 27.4314 45.4ZM53.1833 45.4C51.1299 45.4 49.2899 44.9333 47.6633 44C46.0633 43.04 44.7966 41.7467 43.8633 40.12C42.9299 38.4667 42.4633 36.5867 42.4633 34.48C42.4633 32.3733 42.9299 30.5067 43.8633 28.88C44.7966 27.2267 46.0633 25.9333 47.6633 25C49.2899 24.04 51.1299 23.56 53.1833 23.56C55.2099 23.56 57.0233 24.04 58.6233 25C60.2499 25.9333 61.5299 27.2267 62.4633 28.88C63.3966 30.5067 63.8633 32.3733 63.8633 34.48C63.8633 36.5867 63.3966 38.4667 62.4633 40.12C61.5299 41.7467 60.2499 43.04 58.6233 44C57.0233 44.9333 55.2099 45.4 53.1833 45.4ZM53.1833 41.64C54.4366 41.64 55.5566 41.3333 56.5433 40.72C57.5299 40.08 58.3033 39.2267 58.8633 38.16C59.4233 37.0667 59.6899 35.84 59.6633 34.48C59.6899 33.0933 59.4233 31.8667 58.8633 30.8C58.3033 29.7067 57.5299 28.8533 56.5433 28.24C55.5566 27.6267 54.4366 27.32 53.1833 27.32C51.9299 27.32 50.7966 27.64 49.7833 28.28C48.7966 28.8933 48.0233 29.7467 47.4633 30.84C46.9033 31.9067 46.6366 33.12 46.6633 34.48C46.6366 35.84 46.9033 37.0667 47.4633 38.16C48.0233 39.2267 48.7966 40.08 49.7833 40.72C50.7966 41.3333 51.9299 41.64 53.1833 41.64ZM79.3927 45.4C78.486 45.4 77.5793 45.2533 76.6727 44.96C75.7927 44.6667 74.9793 44.28 74.2327 43.8C73.5127 43.2933 72.8993 42.7467 72.3927 42.16C71.9127 41.5467 71.5927 40.9333 71.4327 40.32L72.4727 39.76V44.88H68.3527V15.4H72.4727V28.8L71.8327 28.44C71.966 27.8267 72.2593 27.24 72.7127 26.68C73.166 26.0933 73.7393 25.5733 74.4327 25.12C75.1527 24.64 75.926 24.2667 76.7527 24C77.5793 23.7067 78.4193 23.56 79.2727 23.56C81.166 23.56 82.846 24.0267 84.3127 24.96C85.7793 25.8933 86.9393 27.1867 87.7927 28.84C88.646 30.4667 89.0727 32.3333 89.0727 34.44C89.0727 36.5467 88.646 38.4267 87.7927 40.08C86.966 41.7333 85.8193 43.04 84.3527 44C82.886 44.9333 81.2327 45.4 79.3927 45.4ZM78.7127 41.64C79.9393 41.64 81.0327 41.3333 81.9927 40.72C82.9527 40.08 83.7127 39.2267 84.2727 38.16C84.8327 37.0667 85.1127 35.8267 85.1127 34.44C85.1127 33.08 84.8327 31.8667 84.2727 30.8C83.7393 29.7067 82.9927 28.8533 82.0327 28.24C81.0727 27.6267 79.966 27.32 78.7127 27.32C77.4593 27.32 76.3527 27.6267 75.3927 28.24C74.4327 28.8533 73.6727 29.7067 73.1127 30.8C72.5527 31.8667 72.2727 33.08 72.2727 34.44C72.2727 35.8267 72.5527 37.0667 73.1127 38.16C73.6727 39.2267 74.4327 40.08 75.3927 40.72C76.3527 41.3333 77.4593 41.64 78.7127 41.64ZM100.548 45.4C98.788 45.4 97.2013 45.0933 95.788 44.48C94.3746 43.8667 93.2013 42.96 92.268 41.76L95.068 39.36C95.868 40.2933 96.7346 40.9733 97.668 41.4C98.628 41.8 99.708 42 100.908 42C101.388 42 101.828 41.9467 102.228 41.84C102.655 41.7067 103.015 41.52 103.308 41.28C103.628 41.04 103.868 40.76 104.028 40.44C104.188 40.0933 104.268 39.72 104.268 39.32C104.268 38.6267 104.015 38.0667 103.508 37.64C103.241 37.4533 102.815 37.2533 102.228 37.04C101.668 36.8 100.935 36.56 100.028 36.32C98.4813 35.92 97.2146 35.4667 96.228 34.96C95.2413 34.4533 94.4813 33.88 93.948 33.24C93.548 32.7333 93.2546 32.1867 93.068 31.6C92.8813 30.9867 92.788 30.32 92.788 29.6C92.788 28.4267 93.1213 27.3867 93.788 26.48C94.4546 25.5733 95.348 24.8667 96.468 24.36C97.6146 23.8267 98.8946 23.56 100.308 23.56C101.295 23.56 102.268 23.6933 103.228 23.96C104.215 24.2267 105.121 24.6133 105.948 25.12C106.775 25.6267 107.468 26.2267 108.028 26.92L105.668 29.52C105.161 29.0133 104.601 28.5733 103.988 28.2C103.401 27.8 102.801 27.4933 102.188 27.28C101.575 27.0667 101.015 26.96 100.508 26.96C99.948 26.96 99.4413 27.0133 98.988 27.12C98.5346 27.2267 98.148 27.3867 97.828 27.6C97.5346 27.8133 97.308 28.08 97.148 28.4C96.988 28.72 96.908 29.08 96.908 29.48C96.9346 29.8267 97.0146 30.16 97.148 30.48C97.308 30.7733 97.5213 31.0267 97.788 31.24C98.0813 31.4533 98.5213 31.68 99.108 31.92C99.6946 32.16 100.441 32.3867 101.348 32.6C102.681 32.9467 103.775 33.3333 104.628 33.76C105.508 34.16 106.201 34.6267 106.708 35.16C107.241 35.6667 107.615 36.2533 107.828 36.92C108.041 37.5867 108.148 38.3333 108.148 39.16C108.148 40.36 107.801 41.44 107.108 42.4C106.441 43.3333 105.535 44.0667 104.388 44.6C103.241 45.1333 101.961 45.4 100.548 45.4Z" fill="white"/>
<path d="M30.3828 60.8438L34.7188 53.7344H36.2031C37.375 53.7995 38.4167 53.8841 39.3281 53.9883C40.2396 54.0924 41.0143 54.1966 41.6523 54.3008C42.3945 54.418 43.0521 54.5417 43.625 54.6719V59.2031C43.2865 59.0208 42.8438 58.8581 42.2969 58.7148C41.75 58.5586 41.1641 58.4349 40.5391 58.3438C39.9271 58.2396 39.3086 58.1615 38.6836 58.1094C38.0586 58.0573 37.4922 58.0312 36.9844 58.0312L32.8047 64.8672L36.9844 71.7031C37.4922 71.7031 38.0586 71.6771 38.6836 71.625C39.3086 71.5729 39.9271 71.5013 40.5391 71.4102C41.1641 71.306 41.75 71.1823 42.2969 71.0391C42.8438 70.8828 43.2865 70.7135 43.625 70.5312V75.0625C43.0521 75.1927 42.3945 75.3164 41.6523 75.4336C41.0143 75.5378 40.2396 75.6419 39.3281 75.7461C38.4167 75.8503 37.375 75.9349 36.2031 76H34.7188L30.3828 68.9297L26.0859 76H24.6016C23.4297 75.9349 22.388 75.8503 21.4766 75.7461C20.5651 75.6419 19.7904 75.5378 19.1523 75.4336C18.4102 75.3164 17.7526 75.1927 17.1797 75.0625V70.5312C17.5052 70.7135 17.9414 70.8828 18.4883 71.0391C19.0352 71.1823 19.6146 71.306 20.2266 71.4102C20.8516 71.5013 21.4766 71.5729 22.1016 71.625C22.7396 71.6771 23.3125 71.7031 23.8203 71.7031L27.9609 64.8672L23.8203 58.0312C23.3125 58.0312 22.7396 58.0573 22.1016 58.1094C21.4766 58.1615 20.8516 58.2396 20.2266 58.3438C19.6146 58.4349 19.0352 58.5586 18.4883 58.7148C17.9414 58.8581 17.5052 59.0208 17.1797 59.2031V54.6719C17.7526 54.5417 18.4102 54.418 19.1523 54.3008C19.7904 54.1966 20.5651 54.0924 21.4766 53.9883C22.388 53.8841 23.4297 53.7995 24.6016 53.7344H26.0859L30.3828 60.8438Z" fill="#C4F63F"/>
<path d="M50.9981 78V50H61.9581C63.9581 50 65.7581 50.3333 67.3581 51C68.9848 51.6667 70.3715 52.6267 71.5181 53.88C72.6648 55.1333 73.5448 56.6133 74.1581 58.32C74.7715 60.0267 75.0781 61.92 75.0781 64C75.0781 66.08 74.7715 67.9867 74.1581 69.72C73.5448 71.4267 72.6648 72.9067 71.5181 74.16C70.3981 75.3867 69.0248 76.3333 67.3981 77C65.7715 77.6667 63.9581 78 61.9581 78H50.9981ZM55.3181 74.28L55.1981 73.84H61.7581C63.1715 73.84 64.4248 73.6133 65.5181 73.16C66.6381 72.7067 67.5715 72.0667 68.3181 71.24C69.0915 70.3867 69.6781 69.3467 70.0781 68.12C70.4781 66.8933 70.6781 65.52 70.6781 64C70.6781 62.48 70.4781 61.12 70.0781 59.92C69.6781 58.6933 69.0915 57.6533 68.3181 56.8C67.5448 55.9467 66.6115 55.2933 65.5181 54.84C64.4248 54.3867 63.1715 54.16 61.7581 54.16H55.0781L55.3181 53.8V74.28ZM89.68 78.4C87.52 78.4 85.6 77.9467 83.92 77.04C82.2667 76.1067 80.96 74.84 80 73.24C79.0667 71.64 78.6 69.8 78.6 67.72C78.6 66.0667 78.8667 64.56 79.4 63.2C79.9333 61.84 80.6667 60.6667 81.6 59.68C82.56 58.6667 83.6933 57.8933 85 57.36C86.3333 56.8 87.7733 56.52 89.32 56.52C90.68 56.52 91.9467 56.7867 93.12 57.32C94.2933 57.8267 95.3067 58.5333 96.16 59.44C97.04 60.3467 97.7067 61.4267 98.16 62.68C98.64 63.9067 98.8667 65.2533 98.84 66.72L98.8 68.48H81.64L80.72 65.2H95.24L94.64 65.88V64.92C94.56 64.04 94.2667 63.2533 93.76 62.56C93.2533 61.8667 92.6133 61.32 91.84 60.92C91.0667 60.52 90.2267 60.32 89.32 60.32C87.88 60.32 86.6667 60.6 85.68 61.16C84.6933 61.6933 83.9467 62.4933 83.44 63.56C82.9333 64.6 82.68 65.8933 82.68 67.44C82.68 68.9067 82.9867 70.1867 83.6 71.28C84.2133 72.3467 85.08 73.1733 86.2 73.76C87.32 74.3467 88.6133 74.64 90.08 74.64C91.12 74.64 92.08 74.4667 92.96 74.12C93.8667 73.7733 94.84 73.1467 95.88 72.24L97.96 75.16C97.32 75.8 96.5333 76.36 95.6 76.84C94.6933 77.32 93.72 77.7067 92.68 78C91.6667 78.2667 90.6667 78.4 89.68 78.4ZM109.807 78L100.927 57H105.367L111.767 72.72L111.007 73.08L117.847 57H122.087L112.767 78H109.807ZM132.661 78.4C130.901 78.4 129.315 78.0933 127.901 77.48C126.488 76.8667 125.315 75.96 124.381 74.76L127.181 72.36C127.981 73.2933 128.848 73.9733 129.781 74.4C130.741 74.8 131.821 75 133.021 75C133.501 75 133.941 74.9467 134.341 74.84C134.768 74.7067 135.128 74.52 135.421 74.28C135.741 74.04 135.981 73.76 136.141 73.44C136.301 73.0933 136.381 72.72 136.381 72.32C136.381 71.6267 136.128 71.0667 135.621 70.64C135.355 70.4533 134.928 70.2533 134.341 70.04C133.781 69.8 133.048 69.56 132.141 69.32C130.595 68.92 129.328 68.4667 128.341 67.96C127.355 67.4533 126.595 66.88 126.061 66.24C125.661 65.7333 125.368 65.1867 125.181 64.6C124.995 63.9867 124.901 63.32 124.901 62.6C124.901 61.4267 125.235 60.3867 125.901 59.48C126.568 58.5733 127.461 57.8667 128.581 57.36C129.728 56.8267 131.008 56.56 132.421 56.56C133.408 56.56 134.381 56.6933 135.341 56.96C136.328 57.2267 137.235 57.6133 138.061 58.12C138.888 58.6267 139.581 59.2267 140.141 59.92L137.781 62.52C137.275 62.0133 136.715 61.5733 136.101 61.2C135.515 60.8 134.915 60.4933 134.301 60.28C133.688 60.0667 133.128 59.96 132.621 59.96C132.061 59.96 131.555 60.0133 131.101 60.12C130.648 60.2267 130.261 60.3867 129.941 60.6C129.648 60.8133 129.421 61.08 129.261 61.4C129.101 61.72 129.021 62.08 129.021 62.48C129.048 62.8267 129.128 63.16 129.261 63.48C129.421 63.7733 129.635 64.0267 129.901 64.24C130.195 64.4533 130.635 64.68 131.221 64.92C131.808 65.16 132.555 65.3867 133.461 65.6C134.795 65.9467 135.888 66.3333 136.741 66.76C137.621 67.16 138.315 67.6267 138.821 68.16C139.355 68.6667 139.728 69.2533 139.941 69.92C140.155 70.5867 140.261 71.3333 140.261 72.16C140.261 73.36 139.915 74.44 139.221 75.4C138.555 76.3333 137.648 77.0667 136.501 77.6C135.355 78.1333 134.075 78.4 132.661 78.4Z" fill="white"/>
</svg>
