<svg width="27" height="23" viewBox="0 0 27 23" fill="none" xmlns="http://www.w3.org/2000/svg">
<path d="M13.3828 7.84375L17.7188 0.734375H19.2031C20.375 0.799479 21.4167 0.884115 22.3281 0.988281C23.2396 1.09245 24.0143 1.19661 24.6523 1.30078C25.3945 1.41797 26.0521 1.54167 26.625 1.67188V6.20312C26.2865 6.02083 25.8438 5.85807 25.2969 5.71484C24.75 5.55859 24.1641 5.4349 23.5391 5.34375C22.9271 5.23958 22.3086 5.16146 21.6836 5.10938C21.0586 5.05729 20.4922 5.03125 19.9844 5.03125L15.8047 11.8672L19.9844 18.7031C20.4922 18.7031 21.0586 18.6771 21.6836 18.625C22.3086 18.5729 22.9271 18.5013 23.5391 18.4102C24.1641 18.306 24.75 18.1823 25.2969 18.0391C25.8438 17.8828 26.2865 17.7135 26.625 17.5312V22.0625C26.0521 22.1927 25.3945 22.3164 24.6523 22.4336C24.0143 22.5378 23.2396 22.6419 22.3281 22.7461C21.4167 22.8503 20.375 22.9349 19.2031 23H17.7188L13.3828 15.9297L9.08594 23H7.60156C6.42969 22.9349 5.38802 22.8503 4.47656 22.7461C3.5651 22.6419 2.79036 22.5378 2.15234 22.4336C1.41016 22.3164 0.752604 22.1927 0.179688 22.0625V17.5312C0.505208 17.7135 0.941406 17.8828 1.48828 18.0391C2.03516 18.1823 2.61458 18.306 3.22656 18.4102C3.85156 18.5013 4.47656 18.5729 5.10156 18.625C5.73958 18.6771 6.3125 18.7031 6.82031 18.7031L10.9609 11.8672L6.82031 5.03125C6.3125 5.03125 5.73958 5.05729 5.10156 5.10938C4.47656 5.16146 3.85156 5.23958 3.22656 5.34375C2.61458 5.4349 2.03516 5.55859 1.48828 5.71484C0.941406 5.85807 0.505208 6.02083 0.179688 6.20312V1.67188C0.752604 1.54167 1.41016 1.41797 2.15234 1.30078C2.79036 1.19661 3.5651 1.09245 4.47656 0.988281C5.38802 0.884115 6.42969 0.799479 7.60156 0.734375H9.08594L13.3828 7.84375Z" fill="#C4F63F"/>
</svg>
